<mxfile host="" modified="2020-10-02T02:55:59.506Z" agent="5.0 (Windows NT 10.0; Win64; x64) AppleWebKit/537.36 (KHTML, like Gecko) Code/1.46.1 Chrome/78.0.3904.130 Electron/7.3.1 Safari/537.36" etag="qxE4KBY3ulD6KfKwX2nd" version="13.1.3">
    <diagram id="6hGFLwfOUW9BJ-s0fimq" name="年齢あて概要">
        <mxGraphModel dx="565" dy="792" grid="1" gridSize="10" guides="1" tooltips="1" connect="1" arrows="1" fold="1" page="1" pageScale="1" pageWidth="827" pageHeight="1169" math="0" shadow="0">
            <root>
                <mxCell id="0"/>
                <mxCell id="1" parent="0"/>
                <mxCell id="4" value="" style="edgeStyle=orthogonalEdgeStyle;rounded=0;orthogonalLoop=1;jettySize=auto;html=1;entryX=0.5;entryY=0;entryDx=0;entryDy=0;" parent="1" source="5" edge="1" target="37">
                    <mxGeometry relative="1" as="geometry">
                        <mxPoint x="290" y="150" as="targetPoint"/>
                    </mxGeometry>
                </mxCell>
                <mxCell id="2" value="開始" style="strokeWidth=2;html=1;shape=mxgraph.flowchart.terminator;whiteSpace=wrap;" parent="1" vertex="1">
                    <mxGeometry x="240" y="10" width="100" height="60" as="geometry"/>
                </mxCell>
                <mxCell id="7" value="" style="edgeStyle=orthogonalEdgeStyle;rounded=0;orthogonalLoop=1;jettySize=auto;html=1;" parent="1" source="37" edge="1">
                    <mxGeometry relative="1" as="geometry">
                        <mxPoint x="290" y="250" as="targetPoint"/>
                    </mxGeometry>
                </mxCell>
                <mxCell id="10" value="" style="edgeStyle=orthogonalEdgeStyle;rounded=0;orthogonalLoop=1;jettySize=auto;html=1;entryX=0;entryY=0.5;entryDx=0;entryDy=0;" parent="1" source="8" target="32" edge="1">
                    <mxGeometry relative="1" as="geometry">
                        <mxPoint x="110" y="300" as="targetPoint"/>
                        <Array as="points">
                            <mxPoint x="90" y="300"/>
                            <mxPoint x="90" y="990"/>
                        </Array>
                    </mxGeometry>
                </mxCell>
                <mxCell id="14" value="" style="edgeStyle=orthogonalEdgeStyle;rounded=0;orthogonalLoop=1;jettySize=auto;html=1;" parent="1" source="30" target="13" edge="1">
                    <mxGeometry relative="1" as="geometry"/>
                </mxCell>
                <mxCell id="8" value="「予測年齢」が&lt;br&gt;年齢と一致しているか" style="strokeWidth=2;html=1;shape=mxgraph.flowchart.decision;whiteSpace=wrap;" parent="1" vertex="1">
                    <mxGeometry x="190" y="250" width="200" height="100" as="geometry"/>
                </mxCell>
                <mxCell id="16" value="" style="edgeStyle=orthogonalEdgeStyle;rounded=0;orthogonalLoop=1;jettySize=auto;html=1;" parent="1" source="13" edge="1">
                    <mxGeometry relative="1" as="geometry">
                        <mxPoint x="290" y="670" as="targetPoint"/>
                    </mxGeometry>
                </mxCell>
                <mxCell id="19" value="" style="edgeStyle=orthogonalEdgeStyle;rounded=0;orthogonalLoop=1;jettySize=auto;html=1;entryX=0.5;entryY=0;entryDx=0;entryDy=0;" parent="1" source="13" target="23" edge="1">
                    <mxGeometry relative="1" as="geometry">
                        <mxPoint x="470" y="540" as="targetPoint"/>
                    </mxGeometry>
                </mxCell>
                <mxCell id="13" value="年齢は「予測年齢」以上か" style="strokeWidth=2;html=1;shape=mxgraph.flowchart.decision;whiteSpace=wrap;" parent="1" vertex="1">
                    <mxGeometry x="190" y="490" width="200" height="100" as="geometry"/>
                </mxCell>
                <mxCell id="11" value="YES" style="text;html=1;resizable=0;autosize=1;align=center;verticalAlign=middle;points=[];fillColor=none;strokeColor=none;rounded=0;" parent="1" vertex="1">
                    <mxGeometry x="160" y="300" width="40" height="20" as="geometry"/>
                </mxCell>
                <mxCell id="12" value="NO&lt;br&gt;" style="text;html=1;resizable=0;autosize=1;align=center;verticalAlign=middle;points=[];fillColor=none;strokeColor=none;rounded=0;" parent="1" vertex="1">
                    <mxGeometry x="240" y="350" width="30" height="20" as="geometry"/>
                </mxCell>
                <mxCell id="17" value="YES" style="text;html=1;resizable=0;autosize=1;align=center;verticalAlign=middle;points=[];fillColor=none;strokeColor=none;rounded=0;" parent="1" vertex="1">
                    <mxGeometry x="386" y="543" width="40" height="20" as="geometry"/>
                </mxCell>
                <mxCell id="21" value="NO&lt;br&gt;" style="text;html=1;resizable=0;autosize=1;align=center;verticalAlign=middle;points=[];fillColor=none;strokeColor=none;rounded=0;" parent="1" vertex="1">
                    <mxGeometry x="300" y="590" width="30" height="20" as="geometry"/>
                </mxCell>
                <mxCell id="25" value="" style="edgeStyle=orthogonalEdgeStyle;rounded=0;orthogonalLoop=1;jettySize=auto;html=1;" parent="1" source="22" target="24" edge="1">
                    <mxGeometry relative="1" as="geometry"/>
                </mxCell>
                <mxCell id="22" value="「上限値」=「予測年齢」" style="rounded=0;whiteSpace=wrap;html=1;" parent="1" vertex="1">
                    <mxGeometry x="190" y="660" width="200" height="60" as="geometry"/>
                </mxCell>
                <mxCell id="29" value="" style="edgeStyle=orthogonalEdgeStyle;rounded=0;orthogonalLoop=1;jettySize=auto;html=1;" parent="1" source="24" edge="1">
                    <mxGeometry relative="1" as="geometry">
                        <mxPoint x="391" y="300" as="targetPoint"/>
                        <Array as="points">
                            <mxPoint x="290" y="910"/>
                            <mxPoint x="690" y="910"/>
                            <mxPoint x="690" y="300"/>
                        </Array>
                    </mxGeometry>
                </mxCell>
                <mxCell id="24" value="「予測年齢」=&amp;nbsp;&lt;br&gt;(下限値 +( (上限値 - 下限値) ÷ 2))" style="rounded=0;whiteSpace=wrap;html=1;" parent="1" vertex="1">
                    <mxGeometry x="190" y="800" width="200" height="60" as="geometry"/>
                </mxCell>
                <mxCell id="27" value="" style="edgeStyle=orthogonalEdgeStyle;rounded=0;orthogonalLoop=1;jettySize=auto;html=1;entryX=1;entryY=0.5;entryDx=0;entryDy=0;" parent="1" source="23" target="24" edge="1">
                    <mxGeometry relative="1" as="geometry">
                        <mxPoint x="550" y="800" as="targetPoint"/>
                        <Array as="points">
                            <mxPoint x="550" y="830"/>
                        </Array>
                    </mxGeometry>
                </mxCell>
                <mxCell id="23" value="「下限値」=「予測年齢」" style="rounded=0;whiteSpace=wrap;html=1;" parent="1" vertex="1">
                    <mxGeometry x="450" y="660" width="200" height="60" as="geometry"/>
                </mxCell>
                <mxCell id="30" value="年齢判定結果&lt;br&gt;「予測年齢」を出力" style="shape=parallelogram;html=1;strokeWidth=2;perimeter=parallelogramPerimeter;whiteSpace=wrap;rounded=1;arcSize=12;size=0.23;" parent="1" vertex="1">
                    <mxGeometry x="200" y="380" width="180" height="60" as="geometry"/>
                </mxCell>
                <mxCell id="31" value="" style="edgeStyle=orthogonalEdgeStyle;rounded=0;orthogonalLoop=1;jettySize=auto;html=1;" parent="1" source="8" target="30" edge="1">
                    <mxGeometry relative="1" as="geometry">
                        <mxPoint x="290" y="350" as="sourcePoint"/>
                        <mxPoint x="290" y="490" as="targetPoint"/>
                    </mxGeometry>
                </mxCell>
                <mxCell id="34" value="" style="edgeStyle=orthogonalEdgeStyle;rounded=0;orthogonalLoop=1;jettySize=auto;html=1;" parent="1" source="32" edge="1">
                    <mxGeometry relative="1" as="geometry">
                        <mxPoint x="290" y="1100" as="targetPoint"/>
                    </mxGeometry>
                </mxCell>
                <mxCell id="32" value="年齢判定結果&lt;br&gt;「予測年齢 = 年齢」を出力" style="shape=parallelogram;html=1;strokeWidth=2;perimeter=parallelogramPerimeter;whiteSpace=wrap;rounded=1;arcSize=12;size=0.23;" parent="1" vertex="1">
                    <mxGeometry x="166.25" y="960" width="247.5" height="60" as="geometry"/>
                </mxCell>
                <mxCell id="35" value="終了" style="strokeWidth=2;html=1;shape=mxgraph.flowchart.terminator;whiteSpace=wrap;" parent="1" vertex="1">
                    <mxGeometry x="240" y="1100" width="100" height="60" as="geometry"/>
                </mxCell>
                <mxCell id="5" value="「下限値」= 範囲の下限値&lt;br&gt;「上限値」= 範囲の上限値" style="rounded=0;whiteSpace=wrap;html=1;" parent="1" vertex="1">
                    <mxGeometry x="172.5" y="90" width="235" height="40" as="geometry"/>
                </mxCell>
                <mxCell id="36" value="" style="edgeStyle=orthogonalEdgeStyle;rounded=0;orthogonalLoop=1;jettySize=auto;html=1;" edge="1" parent="1" source="2" target="5">
                    <mxGeometry relative="1" as="geometry">
                        <mxPoint x="290" y="150" as="targetPoint"/>
                        <mxPoint x="290" y="70" as="sourcePoint"/>
                    </mxGeometry>
                </mxCell>
                <mxCell id="37" value="「予測年齢」= &lt;br&gt;(下限値 +( (上限値 - 下限値) ÷ 2))" style="rounded=0;whiteSpace=wrap;html=1;" vertex="1" parent="1">
                    <mxGeometry x="172.5" y="160" width="235" height="50" as="geometry"/>
                </mxCell>
            </root>
        </mxGraphModel>
    </diagram>
</mxfile>
